<svg width="182" height="15" viewBox="0 0 182 15" fill="none" xmlns="http://www.w3.org/2000/svg">
<path d="M7.23295 14.2045C10.9723 14.2045 13.9957 11.1811 13.983 7.45455C13.9702 3.72798 10.9723 0.704545 7.23295 0.704545C3.51918 0.704545 0.495739 3.72798 0.482955 7.45455C0.470171 11.1811 3.51918 14.2045 7.23295 14.2045ZM7.23295 12.7216C4.32457 12.7216 1.95312 10.3501 1.96591 7.46094C1.97869 4.55256 4.33736 2.1875 7.23295 2.1875C10.1413 2.1875 12.4872 4.53977 12.5 7.46094C12.5128 10.3629 10.1541 12.7216 7.23295 12.7216ZM3.5 7.45455C3.5 9.55114 5.20028 11.2514 7.29688 11.2514C9.11222 11.2514 10.5057 9.97301 10.7486 8.27273H9.2017C9.02273 9.14844 8.28125 9.76847 7.29688 9.76847C6.01847 9.76847 4.98295 8.73295 4.98295 7.45455C4.98295 6.17614 6.01847 5.14062 7.29688 5.14062C8.28125 5.14062 9.15696 5.76065 9.32955 6.63636H10.8764C10.6335 4.93608 9.11222 3.65767 7.29688 3.65767C5.20028 3.65767 3.5 5.35795 3.5 7.45455ZM21.8883 14H30.1468V12.5938H24.0616V12.4915L27.002 9.34659C29.252 6.93679 29.9167 5.81179 29.9167 4.3608C29.9167 2.34091 28.2804 0.730113 25.9792 0.730113C23.6845 0.730113 21.9395 2.28977 21.9395 4.59091H23.448C23.448 3.10156 24.4132 2.1108 25.9281 2.1108C27.3471 2.1108 28.4338 2.98011 28.4338 4.3608C28.4338 5.56889 27.7243 6.46378 26.2093 8.11932L21.8883 12.8494V14ZM37.0566 14.179C39.9458 14.179 41.6078 11.7308 41.6078 7.45455C41.6078 3.21023 39.9203 0.730113 37.0566 0.730113C34.193 0.730113 32.5055 3.21023 32.5055 7.45455C32.5055 11.7308 34.1674 14.179 37.0566 14.179ZM37.0566 12.7727C35.1518 12.7727 34.0396 10.8615 34.0396 7.45455C34.0396 4.05398 35.1646 2.1108 37.0566 2.1108C38.9487 2.1108 40.0737 4.05398 40.0737 7.45455C40.0737 10.8615 38.9615 12.7727 37.0566 12.7727ZM44.0368 14H52.2953V12.5938H46.21V12.4915L49.1504 9.34659C51.4004 6.93679 52.0652 5.81179 52.0652 4.3608C52.0652 2.34091 50.4288 0.730113 48.1277 0.730113C45.8329 0.730113 44.0879 2.28977 44.0879 4.59091H45.5964C45.5964 3.10156 46.5616 2.1108 48.0765 2.1108C49.4956 2.1108 50.5822 2.98011 50.5822 4.3608C50.5822 5.56889 49.8727 6.46378 48.3578 8.11932L44.0368 12.8494V14ZM59.2051 14.179C62.0943 14.179 63.7562 11.7308 63.7562 7.45455C63.7562 3.21023 62.0687 0.730113 59.2051 0.730113C56.3414 0.730113 54.6539 3.21023 54.6539 7.45455C54.6539 11.7308 56.3159 14.179 59.2051 14.179ZM59.2051 12.7727C57.3002 12.7727 56.188 10.8615 56.188 7.45455C56.188 4.05398 57.313 2.1108 59.2051 2.1108C61.0971 2.1108 62.2221 4.05398 62.2221 7.45455C62.2221 10.8615 61.1099 12.7727 59.2051 12.7727ZM71.4778 0.909091V14H72.9608V4.05398H73.0886L77.1795 14H78.6113L82.7022 4.05398H82.8301V14H84.313V0.909091H82.421L77.9721 11.7756H77.8187L73.3699 0.909091H71.4778ZM91.4034 14.2045C93.3977 14.2045 94.8551 13.2074 95.3153 11.7244L93.858 11.3153C93.4744 12.3381 92.5859 12.8494 91.4034 12.8494C89.6328 12.8494 88.4119 11.7053 88.3416 9.60227H95.4688V8.96307C95.4688 5.30682 93.2955 4.05398 91.25 4.05398C88.5909 4.05398 86.8267 6.15057 86.8267 9.16761C86.8267 12.1847 88.5653 14.2045 91.4034 14.2045ZM88.3416 8.2983C88.4439 6.7706 89.5241 5.40909 91.25 5.40909C92.8864 5.40909 93.9347 6.63636 93.9347 8.2983H88.3416ZM104.718 6.38068C104.245 4.98722 103.184 4.05398 101.241 4.05398C99.1697 4.05398 97.6357 5.23011 97.6357 6.89205C97.6357 8.24716 98.4411 9.15483 100.244 9.5767L101.88 9.96023C102.871 10.1903 103.337 10.6634 103.337 11.3409C103.337 12.1847 102.442 12.875 101.036 12.875C99.8026 12.875 99.0291 12.3445 98.7607 11.2898L97.3288 11.6477C97.6804 13.3161 99.0547 14.2045 101.062 14.2045C103.344 14.2045 104.897 12.9581 104.897 11.2642C104.897 9.89631 104.04 9.03338 102.289 8.60511L100.832 8.24716C99.6683 7.95952 99.1442 7.5696 99.1442 6.81534C99.1442 5.97159 100.039 5.35795 101.241 5.35795C102.558 5.35795 103.101 6.08665 103.363 6.7642L104.718 6.38068ZM111.438 4.18182H109.341V1.82955H107.833V4.18182H106.35V5.46023H107.833V11.5966C107.833 13.3097 109.213 14.1278 110.492 14.1278C111.054 14.1278 111.412 14.0256 111.617 13.9489L111.31 12.5938C111.182 12.6193 110.977 12.6705 110.645 12.6705C109.98 12.6705 109.341 12.4659 109.341 11.1875V5.46023H111.438V4.18182ZM117.59 14.2045C120.249 14.2045 122.039 12.1847 122.039 9.14205C122.039 6.07386 120.249 4.05398 117.59 4.05398C114.931 4.05398 113.141 6.07386 113.141 9.14205C113.141 12.1847 114.931 14.2045 117.59 14.2045ZM117.59 12.8494C115.57 12.8494 114.65 11.1108 114.65 9.14205C114.65 7.1733 115.57 5.40909 117.59 5.40909C119.61 5.40909 120.53 7.1733 120.53 9.14205C120.53 11.1108 119.61 12.8494 117.59 12.8494ZM129.609 14H131.194V8.88636H134.058C134.173 8.88636 134.281 8.88636 134.39 8.87997L137.151 14H138.992L136.033 8.59233C137.701 8.02344 138.481 6.66193 138.481 4.9233C138.481 2.60938 137.1 0.909091 134.032 0.909091H129.609V14ZM131.194 7.45455V2.31534H133.981C136.103 2.31534 136.921 3.35085 136.921 4.9233C136.921 6.49574 136.103 7.45455 134.006 7.45455H131.194ZM147.105 9.9858C147.105 11.8267 145.699 12.6705 144.574 12.6705C143.321 12.6705 142.426 11.75 142.426 10.3182V4.18182H140.918V10.4205C140.918 12.9261 142.247 14.1278 144.088 14.1278C145.571 14.1278 146.543 13.3352 147.003 12.3381H147.105V14H148.614V4.18182H147.105V9.9858ZM158.331 6.38068C157.858 4.98722 156.797 4.05398 154.854 4.05398C152.783 4.05398 151.249 5.23011 151.249 6.89205C151.249 8.24716 152.054 9.15483 153.857 9.5767L155.493 9.96023C156.484 10.1903 156.951 10.6634 156.951 11.3409C156.951 12.1847 156.056 12.875 154.65 12.875C153.416 12.875 152.642 12.3445 152.374 11.2898L150.942 11.6477C151.294 13.3161 152.668 14.2045 154.675 14.2045C156.957 14.2045 158.51 12.9581 158.51 11.2642C158.51 9.89631 157.654 9.03338 155.902 8.60511L154.445 8.24716C153.282 7.95952 152.757 7.5696 152.757 6.81534C152.757 5.97159 153.652 5.35795 154.854 5.35795C156.171 5.35795 156.714 6.08665 156.976 6.7642L158.331 6.38068ZM167.736 6.38068C167.263 4.98722 166.202 4.05398 164.258 4.05398C162.187 4.05398 160.653 5.23011 160.653 6.89205C160.653 8.24716 161.459 9.15483 163.261 9.5767L164.898 9.96023C165.888 10.1903 166.355 10.6634 166.355 11.3409C166.355 12.1847 165.46 12.875 164.054 12.875C162.82 12.875 162.047 12.3445 161.778 11.2898L160.346 11.6477C160.698 13.3161 162.072 14.2045 164.079 14.2045C166.361 14.2045 167.915 12.9581 167.915 11.2642C167.915 9.89631 167.058 9.03338 165.307 8.60511L163.849 8.24716C162.686 7.95952 162.162 7.5696 162.162 6.81534C162.162 5.97159 163.057 5.35795 164.258 5.35795C165.575 5.35795 166.118 6.08665 166.381 6.7642L167.736 6.38068ZM170.185 14H171.694V4.18182H170.185V14ZM170.952 2.54545C171.54 2.54545 172.026 2.08523 172.026 1.52273C172.026 0.960227 171.54 0.5 170.952 0.5C170.364 0.5 169.879 0.960227 169.879 1.52273C169.879 2.08523 170.364 2.54545 170.952 2.54545ZM177.346 14.2301C179.059 14.2301 179.954 13.3097 180.261 12.6705H180.338V14H181.846V7.53125C181.846 4.41193 179.468 4.05398 178.215 4.05398C176.732 4.05398 175.045 4.56534 174.278 6.35511L175.71 6.86648C176.042 6.15057 176.828 5.38352 178.267 5.38352C179.654 5.38352 180.338 6.11861 180.338 7.37784V7.42898C180.338 8.15767 179.596 8.09375 177.806 8.32386C175.985 8.56037 173.997 8.96307 173.997 11.2131C173.997 13.1307 175.48 14.2301 177.346 14.2301ZM177.576 12.875C176.374 12.875 175.505 12.3381 175.505 11.2898C175.505 10.1392 176.553 9.78125 177.73 9.62784C178.369 9.55114 180.082 9.37216 180.338 9.06534V10.446C180.338 11.6733 179.366 12.875 177.576 12.875Z" fill="#545454"/>
</svg>
