<svg width="142" height="33" fill="none" xmlns="http://www.w3.org/2000/svg"><path d="M0 7v26h4V14l8 19h3l8-19v19h4V7h-5l-9 20L5 7H0ZM41 33c4 0 7-2 8-5l-3-1c-1 2-3 3-5 3-3 0-5-2-5-6h14v-1c0-7-5-10-9-10-6 0-9 4-9 10s3 10 9 10Zm-5-12c0-3 2-5 5-5s5 2 5 5H36ZM69 18c-1-3-4-5-8-5s-7 2-7 6c0 2 1 4 5 5l3 1c2 0 3 1 3 2 0 2-2 3-4 3s-4-1-4-3l-4 1c1 3 3 5 8 5s8-2 8-6c0-3-2-4-5-5l-4-1c-2 0-3-1-3-3l4-2c2 0 4 1 4 3l4-1ZM82 13h-4V9h-4v4h-2v3h2v12c0 3 3 5 6 5l3-1-1-3-1 1c-2 0-3-1-3-3V16h4v-3ZM95 33c5 0 9-4 9-10s-4-10-9-10c-6 0-10 4-10 10s4 10 10 10Zm0-3c-4 0-6-3-6-7s2-7 6-7c3 0 5 3 5 7s-2 7-5 7ZM107 9h1V6h2l2 3h1l-2-4c2 0 2-1 2-2 0-2-1-3-3-3h-3v9Zm1-4V1h2c2 0 2 1 2 2s0 2-2 2h-2ZM119 6l-2 2-1-2V2h-1v5l2 2 2-1v1h1V2h-1v4ZM126 4l-2-2-2 2 1 2h1l1 1-1 1-2-1h-1l3 2 2-2-1-2h-1l-1-1 1-1 1 1h1ZM133 4c-1-1-1-2-3-2l-2 2c0 1 0 2 2 2h1l1 1-2 1-1-1h-1l2 2c2 0 3-1 3-2l-2-2h-1l-1-1 1-1 2 1h1ZM134 9h1V2h-1v7Zm1-8V0l-1 1h1ZM139 9l2-1v1h1V5c0-2-2-3-2-3l-3 2h1l2-1 1 2h-2l-2 2 2 2Zm0-1-1-1 1-1h2v1l-2 1Z" fill="#fff"/></svg>